# xmcd
#
# Track frame offsets: 
#        150
#        50295
#        84940
#        123747
#        152532
#
# Disc length: 2349 seconds
#
# Revision: 5
# Processed by: cddbd v1.5.2PL0 Copyright (c) Steve Scherf et al.
# Submitted via: ExactAudioCopy v0.95a4
#
DISCID=32092b05
DTITLE=Creedence Clearwater Revival - Chooglin'
DYEAR=1987
DGENRE=Rock
TTITLE0=I Heard It Through The Grapevine
TTITLE1=Keep On Chooglin'
TTITLE2=Suzie Q
TTITLE3=Pagan Baby
TTITLE4=Born On The Bayou
EXTD=Year - 1987\n\nFantasy  FCD 9621-2
EXTT0=
EXTT1=
EXTT2=
EXTT3=
EXTT4=
PLAYORDER=
